<svg xmlns="http://www.w3.org/2000/svg" width="213" height="16" viewBox="0 0 213 16" fill="none">
	<path
		d="M5.88448 14.4436C5.88448 15.153 6.1231 15.2901 6.65333 15.4051L7.47491 15.5654V15.8857H2.0144V15.5654L2.70362 15.4283C3.23385 15.314 3.47247 15.0845 3.47247 14.4443V0.572166H2.88924C1.24582 0.572166 0.58323 2.88406 0.397607 5.33326H0V0.114527H9.35695V5.33349H8.95934C8.77372 2.8843 8.11113 0.572401 6.46771 0.572401H5.88448V14.4436ZM9.94018 15.5651L10.5234 15.4276C11.0536 15.3133 11.2923 15.0843 11.2923 14.4436V1.53368C11.2923 0.892748 11.0536 0.686693 10.5234 0.572166L9.94018 0.434874V0.114292H15.1091V0.434874L14.4995 0.572166C13.9959 0.686693 13.7043 0.869749 13.7043 1.51068V7.53063H17.707V1.51068C17.707 0.869749 17.4154 0.686693 16.9118 0.572166L16.3022 0.434874V0.114292H21.4711V0.434874L20.8878 0.572166C20.3579 0.686693 20.1192 0.892748 20.1192 1.53368V14.4208C20.1192 15.0617 20.3579 15.314 20.8878 15.4283L21.4711 15.5654V15.8857H16.3019V15.5654L16.9115 15.4513C17.4151 15.337 17.7067 15.0847 17.7067 14.4443V8.05726H13.7043V14.4436C13.7043 15.0843 13.9959 15.3363 14.4995 15.4506L15.1091 15.5651V15.885H9.94018V15.5651ZM25.8181 15.4281H27.6471C30.0328 15.4281 30.4834 13.0932 30.8014 10.667H31.199V15.8852H22.054V15.5651L22.6372 15.4281C23.1675 15.3135 23.4061 15.0843 23.4061 14.4438V1.55644C23.4061 0.915747 23.1675 0.686693 22.6372 0.572166L22.054 0.434874V0.114292H30.934V5.33326H30.5364C30.2448 2.88406 29.6882 0.572166 27.6471 0.572166H25.8181V7.4621L26.6663 7.4391C27.8061 7.37034 28.2301 6.52359 28.5217 4.5318H28.9193V10.8951H28.5217C28.2834 8.40014 27.8325 8.01103 26.6397 7.94227L25.8181 7.91927V15.4281ZM36.8666 2.22037C36.522 0.869984 36.31 0.663929 35.8064 0.549402L35.3028 0.434874V0.114292H40.2597V0.434874L39.8621 0.503403C39.0139 0.663694 39.0932 1.39615 39.3319 2.38043L41.4259 11.3532L42.9633 4.21145L42.4067 1.76203C42.1947 0.892279 42.1151 0.617695 41.5851 0.503168L41.2405 0.43464V0.114058H46.0914V0.43464L45.5082 0.526168C44.6334 0.663459 44.766 1.48744 44.978 2.38019L46.9927 11.3534L48.9807 2.86107C49.3517 1.09857 49.1663 0.663694 48.3711 0.526402L47.8145 0.434874V0.114292H51.446V0.434874L50.9424 0.549402C50.3061 0.686693 50.1471 1.12157 49.7759 2.65525L46.542 15.9772H45.8528L43.3612 5.58531L41.1079 15.9772H40.2331L36.8666 2.22037ZM62.7909 15.4281H63.8511C66.1042 15.4281 66.767 13.1155 67.032 10.667H67.4296V15.8852H53.8843V15.5651L54.4409 15.4731C55.5807 15.2905 55.5807 15.016 55.2891 13.6419L54.7855 11.5818H51.5251L51.1804 13.1389C50.7828 14.9014 50.9948 15.3358 51.7903 15.4731L52.3469 15.5651V15.8852H48.6624V15.5651L49.113 15.4508C49.8286 15.2678 50.0142 14.9014 50.3855 13.3448L53.6193 0.0225299H54.4146L57.8074 13.7794C58.152 15.1988 58.311 15.4957 59.2652 15.4957C60.0868 15.4957 60.3784 15.1293 60.3784 14.4433V1.53344C60.3784 0.892513 60.1401 0.686459 59.6098 0.571931L59.0266 0.43464V0.114292H64.2751V0.457639L63.5593 0.594931C63.0293 0.686459 62.7907 0.892513 62.7907 1.53344L62.7909 15.4281ZM51.6313 11.0556H54.6532L53.1157 4.55527L51.6313 11.0556ZM71.7769 15.4281H72.8371C75.0904 15.4281 75.753 13.1155 76.018 10.667H76.4156V15.8852H68.0128V15.5651L68.5961 15.4281C69.1263 15.3135 69.3649 15.0843 69.3649 14.4438V1.53368C69.3649 0.892748 69.1263 0.686693 68.5961 0.572166L68.0128 0.434874V0.114292H73.2614V0.457639L72.5458 0.594931C72.0155 0.686459 71.7769 0.892513 71.7769 1.53344V15.4281ZM85.0591 15.9768C83.522 15.9768 82.992 15.0617 82.4884 15.0617C82.1968 15.0617 81.8522 15.1303 81.5872 15.8857H81.2692V10.6665H81.6668C81.9851 13.6193 83.2575 15.4729 85.0333 15.4729C86.2261 15.4729 87.048 14.5344 87.048 12.8406C87.048 9.26966 81.1369 7.73621 81.1369 3.77611C81.1369 1.6475 82.4093 0.0220605 84.6623 0.0220605C86.1201 0.0220605 86.4384 0.846045 87.048 0.846045C87.3926 0.846045 87.6312 0.617226 87.7636 0.113588H88.0815V5.33255H87.6839C87.366 2.70031 86.5444 0.525698 84.6354 0.525698C83.3102 0.525698 83.045 1.67003 83.045 2.44849C83.045 5.85919 88.9561 7.02652 88.9561 11.7874C88.9553 14.2147 87.4181 15.9768 85.0591 15.9768ZM94.8137 14.4436C94.8137 15.0843 95.0523 15.3133 95.5825 15.4276L96.2718 15.5651V15.885H90.9439V15.5651L91.6331 15.4276C92.1633 15.3133 92.4019 15.0843 92.4019 14.4436V0.572166H91.8187C90.1753 0.572166 89.5127 2.88406 89.3271 5.33326H88.9295V0.114527H98.287V5.33349H97.8891C97.7035 2.8843 97.0411 0.572401 95.3974 0.572401H94.8142V14.4436H94.8137ZM98.8694 15.5651L99.4526 15.4276C99.9828 15.3133 100.221 15.0843 100.221 14.4436V1.53368C100.221 0.892748 99.9828 0.686693 99.4526 0.572166L98.8694 0.434874V0.114292H103.932C106.186 0.114292 108.28 1.35039 108.28 3.93687C108.28 5.92842 107.193 7.32481 104.992 7.82844C107.405 8.21732 107.405 9.20207 107.643 11.8338L107.802 13.8482C107.882 14.9697 107.935 15.222 108.306 15.222C108.704 15.222 108.863 14.444 108.863 13.6883V13.2992H109.313V13.8254C109.313 15.0845 108.995 15.977 107.485 15.977C106 15.977 105.311 15.2445 105.204 12.6125L105.072 9.6827C105.019 8.28632 104.622 8.08026 103.853 8.08026H102.607V14.4438C102.607 15.0845 102.846 15.3365 103.376 15.4508L103.959 15.5654V15.8852H98.8696L98.8694 15.5651ZM102.607 7.62239H103.482C104.966 7.62239 105.708 7.27904 105.708 4.23469C105.708 1.19033 104.727 0.572401 103.667 0.572401H102.607L102.607 7.62239ZM113.236 15.4281H115.065C117.45 15.4281 117.902 13.0932 118.219 10.667H118.617V15.8852H109.472V15.5651L110.055 15.4281C110.585 15.3135 110.824 15.0843 110.824 14.4438V1.55644C110.824 0.915747 110.585 0.686693 110.055 0.572166L109.472 0.434874V0.114292H118.352V5.33326H117.954C117.663 2.88406 117.106 0.572166 115.065 0.572166H113.236V7.4621L114.084 7.4391C115.224 7.37034 115.649 6.52359 115.94 4.5318H116.338V10.8951H115.94C115.701 8.40014 115.251 8.01103 114.057 7.94227L113.236 7.91927V15.4281ZM123.071 15.4281H124.9C127.285 15.4281 127.736 13.0932 128.053 10.667H128.451V15.8852H119.307V15.5651L119.89 15.4281C120.42 15.3135 120.659 15.0843 120.659 14.4438V1.55644C120.659 0.915747 120.42 0.686693 119.89 0.572166L119.307 0.434874V0.114292H128.187V5.33326H127.789C127.497 2.88406 126.941 0.572166 124.9 0.572166H123.071V7.4621L123.919 7.4391C125.058 7.37034 125.483 6.52359 125.774 4.5318H126.172V10.8951H125.774C125.536 8.40014 125.085 8.01103 123.892 7.94227L123.071 7.91927V15.4281ZM134.92 14.4436C134.92 15.153 135.159 15.2901 135.688 15.4051L136.51 15.5654V15.8857H131.049V15.5654L131.738 15.4283C132.268 15.314 132.507 15.0845 132.507 14.4443V0.572166H131.924C130.281 0.572166 129.618 2.88406 129.432 5.33326H129.035V0.114527H138.392V5.33349H137.994C137.809 2.8843 137.146 0.572401 135.503 0.572401H134.92V14.4436ZM149.474 12.2462C149.474 14.6958 148.042 15.9768 145.842 15.9768C143.855 15.9768 142.689 14.5808 142.715 13.0472C142.741 11.8571 143.748 11.2621 144.57 11.3534C145.153 11.422 145.736 11.7883 145.657 12.5895C145.577 13.7341 144.145 13.6883 144.093 14.3978C144.04 14.8329 144.702 15.4736 145.55 15.4736C147.035 15.4736 147.035 13.8484 147.035 12.6125V1.51068C147.035 0.869749 146.796 0.686693 146.213 0.572166L145.551 0.434874V0.114292H150.773V0.434874L150.19 0.572166C149.66 0.686693 149.474 0.892748 149.474 1.53368L149.474 12.2462ZM155.65 16C152.549 16 151.038 12.3835 151.038 7.98827C151.038 3.61652 152.496 0 155.65 0C158.778 0 160.289 3.61652 160.289 7.98827C160.289 12.3835 158.858 16 155.65 16ZM155.65 0.526402C154.325 0.526402 153.663 1.44192 153.663 7.89721C153.663 14.5579 154.272 15.4966 155.65 15.4966C157.028 15.4966 157.665 14.5578 157.665 7.85097C157.665 1.44215 157.028 0.526402 155.65 0.526402ZM170.786 15.5651L171.369 15.4276C171.899 15.3133 172.138 15.0843 172.138 14.4436V1.53368C172.138 0.778221 171.74 0.503638 170.812 0.503638C169.646 0.503638 169.355 0.961511 169.355 2.26613V12.2004C169.355 14.6726 168.347 16 165.883 16C163.338 16 161.854 14.6726 161.854 12.2692V1.53368C161.854 0.892748 161.668 0.686693 161.138 0.572166L160.555 0.434874V0.114292H165.83V0.434874L165.114 0.572166C164.531 0.686693 164.292 0.869749 164.292 1.51068V12.4292C164.292 14.6496 165.034 15.2218 166.386 15.2218C167.977 15.2218 168.64 14.4436 168.64 12.2002V3.09012C168.64 1.16733 168.613 0.709458 167.659 0.526402L167.155 0.434874V0.114292H175.85C178.103 0.114292 180.197 1.35039 180.197 3.93687C180.197 5.92842 179.11 7.32481 176.91 7.82844C179.322 8.21732 179.322 9.20207 179.561 11.8338L179.72 13.8482C179.799 14.9697 179.852 15.222 180.224 15.222C180.621 15.222 180.781 14.444 180.781 13.6883V13.2992H181.231V13.8254C181.231 15.0845 180.913 15.977 179.402 15.977C177.918 15.977 177.228 15.2445 177.122 12.6125L176.99 9.6827C176.937 8.28632 176.539 8.08026 175.771 8.08026H174.525V14.4438C174.525 15.0845 174.763 15.3365 175.293 15.4508L175.877 15.5654V15.8852H170.787V15.5654L170.786 15.5651ZM174.523 7.62239H175.398C176.882 7.62239 177.625 7.27904 177.625 4.23469C177.625 1.19033 176.644 0.572401 175.584 0.572401H174.523V7.62239ZM181.707 0.526402L181.336 0.434874V0.114292H184.808L189.553 10.5062V3.02136C189.553 1.32762 189.606 0.732457 188.201 0.526402L187.751 0.434874V0.114292H191.674V0.434874L191.303 0.526402C190.164 0.755222 190.243 1.55644 190.243 3.15865V15.8855H189.395L183.457 3.27341V12.9786C183.457 14.8327 183.457 15.3595 185.153 15.5651V15.885H181.336V15.5651L181.814 15.4964C182.794 15.3356 182.768 14.5121 182.768 12.8414V1.89979C182.317 1.0988 182.131 0.663694 181.707 0.526402ZM205.033 15.4281H206.094C208.347 15.4281 209.01 13.1155 209.275 10.667H209.672V15.8852H196.154V15.5651L196.71 15.4731C197.85 15.2905 197.877 15.016 197.558 13.6419L197.054 11.5818H193.794L193.449 13.1389C193.051 14.9014 193.264 15.3358 194.059 15.4731L194.616 15.5651V15.8852H190.931V15.5651L191.381 15.4508C192.097 15.2678 192.282 14.9014 192.654 13.3448L195.887 0.0227646H196.683L200.075 13.7796C200.421 15.199 200.553 15.4959 201.507 15.4959C202.328 15.4959 202.621 15.1295 202.621 14.4436V1.53344C202.621 0.892513 202.382 0.686459 201.852 0.571931L201.269 0.43464V0.114292H206.518V0.457639L205.802 0.594931C205.272 0.686459 205.033 0.892513 205.033 1.53344L205.033 15.4281ZM193.9 11.0556H196.922L195.385 4.55503L193.9 11.0556ZM212.8 14.8782C212.8 15.4964 212.27 15.9542 211.634 15.9542C210.998 15.9542 210.467 15.4964 210.467 14.8782C210.467 14.2603 210.998 13.8024 211.634 13.8024C212.27 13.8024 212.8 14.2605 212.8 14.8782Z"
		fill="white"
	/>
</svg>
